M48
; DRILL file KiCad 10.0.3 date 2026-06-20T16:31:17
; FORMAT={-:-/ absolute / metric / decimal}
; #@! TF.CreationDate,2026-06-20T16:31:17+04:00
; #@! TF.GenerationSoftware,Kicad,Pcbnew,10.0.3
; #@! TF.FileFunction,Plated,1,2,PTH
FMAT,2
METRIC
; #@! TA.AperFunction,Plated,PTH,ComponentDrill
T1C1.000
; #@! TA.AperFunction,Plated,PTH,ComponentDrill
T2C1.500
%
G90
G05
T1
X107.5Y-58.56
X107.5Y-61.1
X107.5Y-63.64
X107.5Y-66.18
X107.5Y-68.72
X107.5Y-71.26
X107.5Y-73.8
X122.75Y-58.56
X122.75Y-61.1
X122.75Y-63.64
X122.75Y-66.18
X122.75Y-68.72
X122.75Y-71.26
X122.75Y-73.8
X129.45Y-81.7
X129.45Y-84.2
X129.45Y-86.7
X138.2Y-63.49
X138.2Y-66.03
X138.2Y-68.57
X138.2Y-71.11
X143.95Y-81.7
X143.95Y-86.7
X167.6Y-81.7
X167.6Y-84.2
X167.6Y-86.7
X182.1Y-81.7
X182.1Y-86.7
T2
X133.15Y-100.74
X139.5Y-98.2
X152.2Y-100.7
X152.21Y-81.66
X158.55Y-98.16
X158.56Y-79.12
X171.27Y-100.66
X177.62Y-98.12
T2
G00X136.3Y-78.6
M15
G01X137.6Y-78.6
M16
G05
G00X136.3Y-89.8
M15
G01X137.6Y-89.8
M16
G05
G00X174.45Y-78.6
M15
G01X175.75Y-78.6
M16
G05
G00X174.45Y-89.8
M15
G01X175.75Y-89.8
M16
G05
M30
